<svg width="16" height="16" viewBox="0 0 16 16" fill="none" xmlns="http://www.w3.org/2000/svg">
<path d="M2.66663 4.66668V6.00001H13.3333V4.66668C13.3333 4.31305 13.1928 3.97392 12.9428 3.72387C12.6927 3.47382 12.3536 3.33334 12 3.33334H3.99996C3.64634 3.33334 3.3072 3.47382 3.05715 3.72387C2.8071 3.97392 2.66663 4.31305 2.66663 4.66668Z" fill="black"/>
<path d="M10.6666 3.33333H12C12.3536 3.33333 12.6927 3.47381 12.9428 3.72386C13.1928 3.97391 13.3333 4.31304 13.3333 4.66667V6H2.66663V4.66667C2.66663 4.31304 2.8071 3.97391 3.05715 3.72386C3.3072 3.47381 3.64634 3.33333 3.99996 3.33333H5.33329M10.6666 3.33333V2M10.6666 3.33333H5.33329M5.33329 3.33333V2M2.66663 6.33333V12.6667C2.66663 13.0203 2.8071 13.3594 3.05715 13.6095C3.3072 13.8595 3.64634 14 3.99996 14H12C12.3536 14 12.6927 13.8595 12.9428 13.6095C13.1928 13.3594 13.3333 13.0203 13.3333 12.6667V6.33333" stroke="black" stroke-width="1.33333" stroke-linecap="round" stroke-linejoin="round"/>
</svg>
