<svg width="16" height="16" viewBox="0 0 16 16" fill="none" xmlns="http://www.w3.org/2000/svg">
<path d="M3.75714 2.9C6.1 0.557138 9.9 0.557138 12.2429 2.9C14.5857 5.24285 14.5857 9.04285 12.2429 11.3857L12.2371 11.3914L9.08914 14.4171C8.79629 14.6983 8.40601 14.8552 8.00006 14.855C7.5941 14.8547 7.20398 14.6974 6.91143 14.416L3.76286 11.392L3.75714 11.3857C1.41429 9.04285 1.41429 5.24285 3.75714 2.9ZM8 4.85714C7.39379 4.85714 6.81241 5.09795 6.38376 5.52661C5.9551 5.95526 5.71429 6.53664 5.71429 7.14285C5.71429 7.74906 5.9551 8.33044 6.38376 8.7591C6.81241 9.18775 7.39379 9.42857 8 9.42857C8.60621 9.42857 9.18759 9.18775 9.61624 8.7591C10.0449 8.33044 10.2857 7.74906 10.2857 7.14285C10.2857 6.53664 10.0449 5.95526 9.61624 5.52661C9.18759 5.09795 8.60621 4.85714 8 4.85714Z" fill="black"/>
</svg>
