<svg width="16" height="16" viewBox="0 0 16 16" fill="none" xmlns="http://www.w3.org/2000/svg">
<g clip-path="url(#clip0_11_90)">
<mask id="mask0_11_90" style="mask-type:luminance" maskUnits="userSpaceOnUse" x="0" y="0" width="16" height="16">
<path d="M1.33337 11C1.33337 10.8232 1.40361 10.6536 1.52864 10.5286C1.65366 10.4036 1.82323 10.3333 2.00004 10.3333H4.00004V7.99998L8.00004 5.33331L12 7.99998V10.3333H14C14.1769 10.3333 14.3464 10.4036 14.4714 10.5286C14.5965 10.6536 14.6667 10.8232 14.6667 11V14C14.6667 14.1768 14.5965 14.3464 14.4714 14.4714C14.3464 14.5964 14.1769 14.6666 14 14.6666H1.33337V11Z" fill="white" stroke="white" stroke-width="1.33333" stroke-linejoin="round"/>
<path d="M8 2V5.33333" stroke="white" stroke-width="1.33333" stroke-linecap="round"/>
<path d="M12 3.99999V1.99999C12 1.99999 11.5 2.99999 10 1.99999C8.5 0.999986 8 1.99999 8 1.99999V3.99999C8 3.99999 8.5 2.99999 10 3.99999C11.5 4.99999 12 3.99999 12 3.99999Z" stroke="white" stroke-width="1.33333" stroke-linecap="round" stroke-linejoin="round"/>
<path d="M9.33341 14.6666V10.3333H6.66675V14.6666" stroke="black" stroke-width="1.33333" stroke-linecap="round" stroke-linejoin="round"/>
<path d="M6 14.6667H10" stroke="white" stroke-width="1.33333" stroke-linecap="round" stroke-linejoin="round"/>
</mask>
<g mask="url(#mask0_11_90)">
<path d="M0 0H16V16H0V0Z" fill="black"/>
</g>
</g>
<defs>
<clipPath id="clip0_11_90">
<rect width="16" height="16" fill="white"/>
</clipPath>
</defs>
</svg>
