<svg width="42" height="42" viewBox="0 0 42 42" fill="none" xmlns="http://www.w3.org/2000/svg">
<path d="M7.455 7.455C5.25 9.681 5.25 13.2405 5.25 20.37V21.63C5.25 28.749 5.25 32.3085 7.455 34.545C9.681 36.75 13.2405 36.75 20.37 36.75H21.63C28.749 36.75 32.3085 36.75 34.545 34.545C36.75 32.319 36.75 28.7595 36.75 21.63V20.37C36.75 13.251 36.75 9.6915 34.545 7.455C32.319 5.25 28.7595 5.25 21.63 5.25H20.37C13.251 5.25 9.6915 5.25 7.455 7.455ZM10.563 14.8365H14.175C14.2905 20.8425 16.9365 23.3835 19.0365 23.9085V14.8365H22.428V20.013C24.4965 19.7925 26.6805 17.43 27.4155 14.826H30.7965C30.5206 16.1739 29.9699 17.4504 29.1786 18.5759C28.3873 19.7014 27.3725 20.6517 26.1975 21.3675C27.509 22.02 28.6672 22.9433 29.5957 24.0763C30.5242 25.2093 31.2019 26.5263 31.584 27.9405H27.8565C27.0585 25.452 25.0635 23.52 22.428 23.2575V27.9405H22.008C14.826 27.9405 10.731 23.0265 10.563 14.8365Z" fill="black" fill-opacity="0.55"/>
</svg>
